<?xml version="1.0" encoding="utf-8"?>
<!-- Generator: Adobe Illustrator 17.0.1, SVG Export Plug-In . SVG Version: 6.00 Build 0)  -->
<!DOCTYPE svg PUBLIC "-//W3C//DTD SVG 1.1//EN" "http://www.w3.org/Graphics/SVG/1.1/DTD/svg11.dtd">
<svg version="1.1" xmlns="http://www.w3.org/2000/svg" xmlns:xlink="http://www.w3.org/1999/xlink" x="0px" y="0px" width="150px"
	 height="40px" viewBox="0 0 150 40" enable-background="new 0 0 150 40" xml:space="preserve">
<g id="Layer_2">
</g>
<g id="Layer_3">
	<g>
		<g>
			<path fill="#FFFFFF" d="M17.174,27.867h-4.731l-5.126-6.621H4.882v6.621H1.056V10.391h6.691c2.427,0,4.176,0.431,5.247,1.293
				c1.071,0.862,1.606,2.032,1.606,3.508c0,2.312-1.164,4.024-3.49,5.137L17.174,27.867z M4.859,13.14v5.439h1.716
				c1.647,0,2.737-0.274,3.27-0.823c0.533-0.549,0.8-1.268,0.8-2.157c0-0.789-0.255-1.395-0.765-1.821
				c-0.51-0.425-1.515-0.638-3.015-0.638H4.859z"/>
			<path fill="#FFFFFF" d="M35.491,21.709h-9.52c0.154,2.69,1.681,4.035,4.581,4.035c1.515,0,3.038-0.549,4.569-1.647h0.128v3.085
				c-1.817,0.696-3.525,1.044-5.126,1.044c-2.521,0-4.441-0.599-5.763-1.797c-1.322-1.198-1.983-2.926-1.983-5.184
				c0-2.242,0.626-4.006,1.879-5.294c1.252-1.287,2.98-1.931,5.184-1.931c4.035,0,6.053,2.145,6.053,6.436V21.709z M31.931,19.692
				c-0.031-2.311-0.97-3.467-2.818-3.467c-1.964,0-3.011,1.156-3.143,3.467H31.931z"/>
			<path fill="#FFFFFF" d="M46.908,27.867h-3.56V9.614h3.56V27.867z"/>
			<path fill="#FFFFFF" d="M67.916,21.709h-9.521c0.154,2.69,1.681,4.035,4.581,4.035c1.515,0,3.038-0.549,4.569-1.647h0.128v3.085
				c-1.817,0.696-3.525,1.044-5.126,1.044c-2.521,0-4.441-0.599-5.763-1.797c-1.322-1.198-1.983-2.926-1.983-5.184
				c0-2.242,0.626-4.006,1.879-5.294c1.252-1.287,2.98-1.931,5.184-1.931c4.035,0,6.053,2.145,6.053,6.436V21.709z M64.356,19.692
				c-0.031-2.311-0.97-3.467-2.818-3.467c-1.964,0-3.011,1.156-3.143,3.467H64.356z"/>
			<path fill="#FFFFFF" d="M106.405,27.867h-3.537v-1.751c-1.09,0.936-1.973,1.521-2.65,1.757c-0.677,0.236-1.398,0.354-2.163,0.354
				c-1.175,0-2.149-0.381-2.922-1.142c-0.773-0.761-1.16-1.741-1.16-2.939c0-1.515,0.57-2.663,1.71-3.444
				c1.141-0.781,3.547-1.268,7.219-1.461V18.88c0-0.842-0.29-1.453-0.87-1.832c-0.58-0.379-1.539-0.568-2.876-0.568
				c-0.912,0-2.219,0.348-3.92,1.044H95.11v-2.818c1.793-0.433,3.417-0.649,4.87-0.649c2.265,0,3.902,0.365,4.911,1.096
				c1.009,0.73,1.514,1.892,1.514,3.484V27.867z M102.868,24.597v-3.386c-2.335,0.193-3.796,0.493-4.383,0.899
				c-0.588,0.405-0.881,0.968-0.881,1.687c0,0.765,0.205,1.299,0.615,1.6c0.41,0.302,1.051,0.452,1.925,0.452
				C101.063,25.849,101.971,25.432,102.868,24.597z"/>
			<path fill="#FFFFFF" d="M127.772,27.867h-3.584v-6.691c0-1.871-0.207-3.032-0.621-3.485c-0.414-0.452-1.084-0.678-2.011-0.678
				c-0.774,0-1.705,0.344-2.795,1.032v9.822h-3.56V14.438h3.56v1.879c1.113-0.912,2.004-1.515,2.673-1.809
				c0.669-0.294,1.367-0.441,2.093-0.441c2.829,0,4.245,1.658,4.245,4.975V27.867z"/>
			<path fill="#FFFFFF" d="M144.5,27.786c-0.951,0.232-1.968,0.348-3.049,0.348c-1.601,0-2.772-0.342-3.514-1.026
				c-0.742-0.684-1.113-1.791-1.113-3.322v-6.993h-1.763v-2.354h1.774V10.67h3.549v3.769h4.116v2.354h-4.116v5.531
				c0,1.423,0.181,2.35,0.545,2.783c0.364,0.433,0.974,0.649,1.832,0.649c0.549,0,1.094-0.135,1.635-0.406h0.105V27.786z"/>
		</g>
		<g>
			<path fill="#4CBCB4" d="M7.804,33.01c0,0.23-0.247,1.046-0.742,2.449S6.32,37.656,6.32,37.842H5.34
				c0-0.195-0.15-0.746-0.449-1.651c-0.319-0.97-0.499-1.609-0.538-1.918H4.29c-0.039,0.312-0.205,0.956-0.497,1.933
				c-0.272,0.913-0.408,1.458-0.408,1.636H2.383c0-0.232-0.244-1.06-0.731-2.483c-0.488-1.423-0.731-2.206-0.731-2.349h1.176
				c0,0.156,0.141,0.777,0.423,1.863c0.282,1.086,0.423,1.731,0.423,1.933h0.059c0-0.203,0.151-0.835,0.453-1.898
				s0.453-1.695,0.453-1.898h1.058c0,0.186,0.151,0.829,0.453,1.931s0.453,1.724,0.453,1.865H5.93c0-0.178,0.137-0.783,0.41-1.815
				C6.613,33.96,6.75,33.3,6.75,33.01H7.804z"/>
			<path fill="#4CBCB4" d="M15.215,35.7c0,0.126-0.007,0.291-0.022,0.494l-2.39,0.041c0.035,0.28,0.154,0.512,0.36,0.698
				c0.205,0.186,0.475,0.278,0.809,0.278c0.371,0,0.766-0.056,1.184-0.167l-0.074,0.72c-0.341,0.124-0.764,0.186-1.269,0.186
				c-0.638,0-1.128-0.18-1.468-0.538c-0.34-0.359-0.51-0.79-0.51-1.295c0-0.527,0.161-0.984,0.484-1.371s0.771-0.581,1.345-0.581
				c0.525,0,0.914,0.142,1.169,0.427S15.215,35.245,15.215,35.7z M14.346,35.667c0-0.569-0.243-0.853-0.727-0.853
				c-0.462,0-0.737,0.295-0.824,0.883L14.346,35.667z"/>
			<path fill="#4CBCB4" d="M23.382,35.927c0,0.537-0.154,1.008-0.46,1.414s-0.729,0.609-1.265,0.609
				c-0.396,0-0.675-0.084-0.839-0.252h-0.048l-0.074,0.145h-0.872c0.032-0.868,0.048-1.787,0.048-2.757
				c0-0.913-0.041-1.733-0.122-2.46l1.065-0.059c-0.025,0.577-0.037,1.228-0.037,1.956h0.045c0.25-0.22,0.588-0.33,1.013-0.33
				c0.475,0,0.852,0.171,1.13,0.514S23.382,35.454,23.382,35.927z M22.395,36.023c0-0.309-0.078-0.577-0.236-0.803
				c-0.157-0.226-0.373-0.34-0.648-0.34c-0.341,0-0.591,0.1-0.75,0.301c0,0.846,0.019,1.483,0.056,1.911
				c0.156,0.121,0.358,0.182,0.605,0.182c0.329,0,0.573-0.122,0.733-0.366C22.315,36.665,22.395,36.37,22.395,36.023z"/>
			<path fill="#4CBCB4" d="M37.805,35.259c0,0.703-0.225,1.316-0.675,1.841s-1.081,0.787-1.893,0.787
				c-0.366,0-0.871-0.015-1.514-0.045c0.032-0.747,0.048-1.59,0.048-2.527c0-0.9-0.016-1.668-0.048-2.304h0.649
				c0.106,0,0.265-0.004,0.475-0.011c0.21-0.007,0.347-0.011,0.412-0.011c0.893,0,1.54,0.223,1.943,0.668
				C37.605,34.101,37.805,34.635,37.805,35.259z M36.792,35.418c0-0.475-0.139-0.875-0.416-1.2c-0.277-0.325-0.7-0.488-1.269-0.488
				c-0.106,0-0.252,0.011-0.438,0.033c0.025,0.495,0.037,1.012,0.037,1.551c0,0.591,0.013,1.178,0.037,1.759
				c0.161,0.032,0.321,0.048,0.482,0.048c0.532,0,0.926-0.165,1.182-0.495C36.664,36.296,36.792,35.893,36.792,35.418z"/>
			<path fill="#4CBCB4" d="M45.679,35.7c0,0.126-0.007,0.291-0.022,0.494l-2.39,0.041c0.035,0.28,0.154,0.512,0.36,0.698
				c0.205,0.186,0.475,0.278,0.809,0.278c0.371,0,0.766-0.056,1.184-0.167l-0.074,0.72c-0.341,0.124-0.764,0.186-1.269,0.186
				c-0.638,0-1.128-0.18-1.468-0.538c-0.34-0.359-0.51-0.79-0.51-1.295c0-0.527,0.161-0.984,0.484-1.371
				c0.323-0.387,0.771-0.581,1.345-0.581c0.525,0,0.914,0.142,1.169,0.427C45.552,34.875,45.679,35.245,45.679,35.7z M44.811,35.667
				c0-0.569-0.243-0.853-0.727-0.853c-0.462,0-0.737,0.295-0.824,0.883L44.811,35.667z"/>
			<path fill="#4CBCB4" d="M53.509,34.316c0,0.143-0.221,0.731-0.664,1.763c-0.443,1.032-0.664,1.619-0.664,1.763h-1.013
				c0-0.158-0.197-0.76-0.59-1.805c-0.393-1.045-0.59-1.618-0.59-1.72h1.084c0,0.111,0.122,0.541,0.366,1.29
				c0.244,0.748,0.366,1.188,0.366,1.319h0.048c0-0.119,0.116-0.534,0.349-1.247c0.232-0.712,0.349-1.167,0.349-1.362H53.509z"/>
			<path fill="#4CBCB4" d="M61.194,35.7c0,0.126-0.007,0.291-0.022,0.494l-2.39,0.041c0.035,0.28,0.154,0.512,0.36,0.698
				c0.205,0.186,0.475,0.278,0.809,0.278c0.371,0,0.766-0.056,1.184-0.167l-0.074,0.72c-0.341,0.124-0.764,0.186-1.269,0.186
				c-0.638,0-1.128-0.18-1.468-0.538c-0.34-0.359-0.51-0.79-0.51-1.295c0-0.527,0.161-0.984,0.484-1.371
				c0.323-0.387,0.771-0.581,1.345-0.581c0.525,0,0.914,0.142,1.169,0.427C61.067,34.875,61.194,35.245,61.194,35.7z M60.326,35.667
				c0-0.569-0.243-0.853-0.727-0.853c-0.462,0-0.737,0.295-0.824,0.883L60.326,35.667z"/>
			<path fill="#4CBCB4" d="M66.923,37.842H65.91c0.037-0.848,0.056-1.768,0.056-2.757c0-0.965-0.038-1.785-0.115-2.46l1.072-0.059
				c-0.037,0.7-0.056,1.54-0.056,2.52C66.867,36.079,66.886,36.998,66.923,37.842z"/>
			<path fill="#4CBCB4" d="M75.302,35.997c0,0.623-0.192,1.111-0.575,1.462c-0.384,0.351-0.835,0.527-1.354,0.527
				c-0.495,0-0.919-0.16-1.273-0.481c-0.354-0.321-0.531-0.771-0.531-1.353c0-0.626,0.193-1.116,0.579-1.469
				c0.386-0.354,0.839-0.531,1.358-0.531c0.492,0,0.915,0.161,1.267,0.484C75.126,34.96,75.302,35.413,75.302,35.997z
				 M74.334,36.109c0-0.359-0.084-0.66-0.252-0.904c-0.168-0.244-0.387-0.366-0.657-0.366c-0.262,0-0.475,0.114-0.64,0.341
				s-0.247,0.512-0.247,0.853c0,0.359,0.084,0.66,0.252,0.904c0.168,0.244,0.387,0.366,0.657,0.366c0.262,0,0.475-0.114,0.64-0.341
				C74.251,36.734,74.334,36.45,74.334,36.109z"/>
			<path fill="#4CBCB4" d="M83.503,35.927c0,0.537-0.154,1.008-0.46,1.414s-0.726,0.609-1.258,0.609
				c-0.396,0-0.668-0.084-0.816-0.252h-0.045c0,0.606,0.009,1.219,0.026,1.841h-1.009c0.045-0.71,0.067-1.529,0.067-2.457
				c0-1.197-0.064-2.11-0.193-2.739l0.95-0.104l0.056,0.319h0.059c0.265-0.245,0.625-0.367,1.08-0.367
				c0.475,0,0.851,0.171,1.128,0.514C83.364,35.047,83.503,35.454,83.503,35.927z M82.516,36.023c0-0.312-0.078-0.58-0.234-0.805
				c-0.156-0.225-0.371-0.338-0.646-0.338c-0.341,0-0.591,0.1-0.75,0.301c0.037,0.695,0.056,1.332,0.056,1.911
				c0.156,0.121,0.358,0.182,0.605,0.182c0.329,0,0.573-0.122,0.731-0.366C82.437,36.665,82.516,36.37,82.516,36.023z"/>
			<path fill="#4CBCB4" d="M93.625,37.842h-0.983c0.052-0.626,0.078-1.234,0.078-1.826c0-0.443-0.057-0.732-0.171-0.868
				s-0.295-0.204-0.545-0.204c-0.2,0-0.412,0.073-0.635,0.219c-0.01,0.309-0.015,0.586-0.015,0.831c0,0.413,0.007,1.029,0.022,1.848
				h-0.994c0.054-0.678,0.082-1.337,0.082-1.978c0-0.332-0.046-0.568-0.139-0.709c-0.093-0.141-0.285-0.212-0.577-0.212
				c-0.269,0-0.494,0.09-0.672,0.271c0.013,0.98,0.019,1.855,0.019,2.627h-0.998c0.045-0.772,0.067-1.38,0.067-1.826
				c0-0.579-0.061-1.137-0.182-1.674l0.95-0.104l0.063,0.393h0.059c0.321-0.292,0.684-0.438,1.087-0.438
				c0.505,0,0.86,0.146,1.065,0.438h0.059c0.366-0.292,0.729-0.438,1.087-0.438c0.421,0,0.738,0.091,0.952,0.273
				c0.214,0.182,0.321,0.512,0.321,0.989c0,0.047-0.002,0.137-0.007,0.269c-0.005,0.132-0.007,0.222-0.007,0.269
				C93.611,36.407,93.616,37.023,93.625,37.842z"/>
			<path fill="#4CBCB4" d="M101.626,35.7c0,0.126-0.007,0.291-0.022,0.494l-2.39,0.041c0.035,0.28,0.154,0.512,0.36,0.698
				c0.205,0.186,0.475,0.278,0.809,0.278c0.371,0,0.766-0.056,1.184-0.167l-0.074,0.72c-0.341,0.124-0.764,0.186-1.269,0.186
				c-0.638,0-1.128-0.18-1.468-0.538s-0.51-0.79-0.51-1.295c0-0.527,0.161-0.984,0.484-1.371c0.323-0.387,0.771-0.581,1.345-0.581
				c0.525,0,0.914,0.142,1.169,0.427C101.498,34.875,101.626,35.245,101.626,35.7z M100.758,35.667c0-0.569-0.243-0.853-0.727-0.853
				c-0.462,0-0.737,0.295-0.824,0.883L100.758,35.667z"/>
			<path fill="#4CBCB4" d="M109.6,37.842h-0.987c0.054-0.626,0.082-1.259,0.082-1.9c0-0.388-0.058-0.652-0.173-0.79
				c-0.115-0.139-0.289-0.208-0.525-0.208c-0.282,0-0.549,0.096-0.802,0.289c0.013,0.965,0.019,1.835,0.019,2.609h-0.998
				c0.045-0.774,0.067-1.383,0.067-1.826c0-0.591-0.061-1.149-0.182-1.674l0.95-0.104l0.063,0.393h0.059
				c0.339-0.292,0.729-0.438,1.169-0.438c0.38,0,0.687,0.09,0.915,0.269c0.228,0.18,0.343,0.51,0.343,0.993
				c0,0.072-0.004,0.167-0.009,0.288c-0.006,0.12-0.009,0.243-0.009,0.369C109.582,36.446,109.587,37.023,109.6,37.842z"/>
			<path fill="#4CBCB4" d="M116.577,37.148l-0.063,0.661c-0.173,0.074-0.391,0.111-0.653,0.111c-0.401,0-0.702-0.109-0.905-0.327
				s-0.304-0.637-0.304-1.258c0-0.373,0.003-0.796,0.007-1.269c-0.126,0-0.297,0.007-0.512,0.022l0.026-0.731
				c0.19,0.015,0.367,0.022,0.531,0.022c0.003-0.131,0.012-0.476,0.03-1.035l0.879-0.108c-0.037,0.492-0.056,0.873-0.056,1.143
				c0.208,0,0.519-0.01,0.931-0.03l-0.03,0.738c-0.376-0.015-0.682-0.022-0.917-0.022c-0.005,0.329-0.007,0.674-0.007,1.035
				c0,0.44,0.045,0.735,0.134,0.885c0.089,0.15,0.246,0.225,0.471,0.225C116.275,37.211,116.421,37.19,116.577,37.148z"/>
			<path fill="#4CBCB4" d="M129.92,37.033l-0.03,0.809h-3.084c0.03-0.67,0.045-1.513,0.045-2.527c0-0.93-0.015-1.698-0.045-2.304
				h1.043c-0.03,0.562-0.045,1.33-0.045,2.304c0,0.744-0.016,1.336-0.048,1.774C128.439,37.088,129.16,37.07,129.92,37.033z"/>
			<path fill="#4CBCB4" d="M137.56,37.033l-0.03,0.809h-3.084c0.03-0.67,0.045-1.513,0.045-2.527c0-0.93-0.015-1.698-0.045-2.304
				h1.043c-0.03,0.562-0.045,1.33-0.045,2.304c0,0.744-0.016,1.336-0.048,1.774C136.08,37.088,136.801,37.07,137.56,37.033z"/>
			<path fill="#4CBCB4" d="M145.546,36.962l-0.063,0.853c-0.352,0.084-0.698,0.126-1.039,0.126c-0.849,0-1.495-0.234-1.939-0.703
				c-0.444-0.469-0.666-1.039-0.666-1.709c0-0.695,0.236-1.3,0.707-1.815s1.118-0.772,1.939-0.772c0.301,0,0.587,0.035,0.857,0.104
				l-0.13,0.857c-0.292-0.094-0.571-0.141-0.839-0.141c-0.502,0-0.876,0.159-1.121,0.477s-0.367,0.705-0.367,1.16
				c0,0.465,0.146,0.868,0.436,1.21s0.699,0.512,1.223,0.512C144.851,37.122,145.185,37.068,145.546,36.962z"/>
		</g>
		<path fill="#65BC46" d="M92.15,0.397c-3.434,5.126-7.324,11.357-11.381,18.268c-0.39-0.65-0.796-1.321-1.213-2.007
			c-1.039-1.707-2.029-3.306-2.911-4.706l-3.593,5.301c1.72,2.522,3.442,5.282,5.108,8.226c0.738,1.304,1.438,2.6,2.102,3.879
			c2.406-4.298,5.061-8.638,7.972-12.966c3.871-5.755,7.929-11.104,12.06-15.994H92.15z"/>
	</g>
</g>
</svg>
